<svg width="30" height="28" viewBox="0 0 30 28" fill="none" xmlns="http://www.w3.org/2000/svg">
<path d="M29.1 1.85L28.35 7.04999C26.8167 6.91666 25.6 7.18333 24.7 7.85C23.8 8.48333 23.1833 9.4 22.85 10.6C22.55 11.7667 22.5 13.1 22.7 14.6H29.1V27.45H16.75V14.1C16.75 9.73333 17.7833 6.43333 19.85 4.2C21.9167 1.93333 25 1.15 29.1 1.85ZM12.35 1.85L11.6 7.04999C10.0667 6.91666 8.85 7.18333 7.95 7.85C7.05 8.48333 6.43333 9.4 6.1 10.6C5.8 11.7667 5.75 13.1 5.95 14.6H12.35V27.45H5.66244e-07V14.1C5.66244e-07 9.73333 1.03333 6.43333 3.1 4.2C5.16667 1.93333 8.25 1.15 12.35 1.85Z" fill="black"/>
</svg>
